<svg xmlns="http://www.w3.org/2000/svg" width="30" height="35" viewBox="0 0 30 35">
    <g data-name="Group 2">
        <path d="M14.872 19.041h.233a6.715 6.715 0 0 0 5.139-2.232c2.807-3.176 2.34-8.62 2.289-9.14-.182-3.9-2.019-5.766-3.536-6.637A8.081 8.081 0 0 0 15.076 0h-.124a8.093 8.093 0 0 0-3.922 1c-1.531.871-3.4 2.737-3.579 6.666-.051.52-.518 5.964 2.289 9.14a6.688 6.688 0 0 0 5.132 2.235zM9.398 7.852c0-.022.007-.044.007-.059.241-5.247 3.951-5.81 5.54-5.81h.088c1.968.044 5.314.849 5.54 5.81a.143.143 0 0 0 .007.059c.007.051.518 5.027-1.8 7.647a4.769 4.769 0 0 1-3.754 1.566h-.073A4.754 4.754 0 0 1 11.21 15.5c-2.315-2.606-1.82-7.6-1.812-7.648z" data-name="Path 1"/>
        <path d="M29.998 27.733v-.022c0-.059-.007-.117-.007-.183-.044-1.449-.139-4.837-3.309-5.92l-.073-.022a21.057 21.057 0 0 1-6.062-2.766.987.987 0 0 0-1.132 1.617 22.731 22.731 0 0 0 6.668 3.052c1.7.607 1.892 2.429 1.943 4.1a1.472 1.472 0 0 0 .007.183 13.308 13.308 0 0 1-.153 2.261 26.839 26.839 0 0 1-12.876 3A26.993 26.993 0 0 1 2.12 30.025a12.6 12.6 0 0 1-.153-2.261c0-.059.007-.117.007-.183.051-1.668.241-3.491 1.943-4.1a22.942 22.942 0 0 0 6.668-3.051.987.987 0 0 0-1.132-1.617 20.826 20.826 0 0 1-6.062 2.766c-.029.007-.051.015-.073.022-3.17 1.09-3.265 4.478-3.309 5.92a1.472 1.472 0 0 1-.007.183v.022a11.242 11.242 0 0 0 .372 3.315.939.939 0 0 0 .38.461c.219.146 5.47 3.5 14.257 3.5s14.038-3.359 14.257-3.5a.979.979 0 0 0 .38-.461 11.8 11.8 0 0 0 .35-3.308z" data-name="Path 2"/>
    </g>
</svg>
