<svg xmlns="http://www.w3.org/2000/svg" width="147" height="117.27" viewBox="0 0 147 117.27">
    <defs>
        <style>
            .cls-1{fill:rgba(125,68,52,.34)}
        </style>
    </defs>
    <g id="picture" transform="translate(0 -54.821)">
        <g id="Group_21" data-name="Group 21" transform="translate(0 54.821)">
            <path id="Path_30" d="M143.4 58.409a11.81 11.81 0 0 0-8.651-3.588H12.25a11.815 11.815 0 0 0-8.65 3.588A11.745 11.745 0 0 0 0 67.036v92.838a11.745 11.745 0 0 0 3.6 8.626 11.816 11.816 0 0 0 8.652 3.588h122.5A12.27 12.27 0 0 0 147 159.874V67.036a11.745 11.745 0 0 0-3.6-8.627zm-6.2 101.465a2.474 2.474 0 0 1-2.449 2.441H12.25a2.476 2.476 0 0 1-2.45-2.441V67.035a2.478 2.478 0 0 1 2.45-2.442h122.5a2.476 2.476 0 0 1 2.448 2.442v92.839z" class="cls-1" data-name="Path 30" transform="translate(0 -54.821)"/>
            <path id="Path_31" d="M87.754 157.227a14.6 14.6 0 1 0-10.383-4.275 14.136 14.136 0 0 0 10.383 4.275z" class="cls-1" data-name="Path 31" transform="translate(-53.549 -108.365)"/>
            <path id="Path_32" d="M109.879 212.677l-12.263-12.215-24.524 24.431v14.66H181v-34.2l-31.882-31.761z" class="cls-1" data-name="Path 32" transform="translate(-53.546 -141.827)"/>
        </g>
    </g>
</svg>
