<svg xmlns="http://www.w3.org/2000/svg" width="18" height="18.001" viewBox="0 0 18 18.001">
    <defs>
        <style>
            .cls-1{fill:#fff}
        </style>
    </defs>
    <g id="edit" transform="translate(-28.165 -.261)">
        <path id="Path_120" d="M124.663 1.07a2.761 2.761 0 0 0-3.905 0L109.81 12.017a.613.613 0 0 0-.157.27l-1.44 5.2a.613.613 0 0 0 .755.755l5.2-1.44a.613.613 0 0 0 .27-.157l10.945-10.95a2.764 2.764 0 0 0 0-3.905zm-13.516 11.346l8.96-8.96L123 6.346l-8.96 8.96zm-.577 1.158l2.309 2.309-3.193.885zm13.945-8.747l-.651.651-2.89-2.89.651-.651a1.534 1.534 0 0 1 2.169 0l.72.72a1.536 1.536 0 0 1 .001 2.17zm0 0" class="cls-1" data-name="Path 120" transform="translate(-80.026)"/>
    </g>
</svg>
