<svg xmlns="http://www.w3.org/2000/svg" id="exchange-arrows_1_" width="35" height="26" data-name="exchange-arrows (1)" viewBox="0 0 35 26">
    <defs>
        <style>
            .cls-1{fill:#7d4434}
        </style>
    </defs>
    <g id="Group_1392" data-name="Group 1392">
        <path id="Path_116" d="M34.375 73.5H7.5v3.817a.617.617 0 0 1-.185.447.629.629 0 0 1-.889.01L.175 71.409a.683.683 0 0 1 0-.914l6.23-6.342a.727.727 0 0 1 .469-.2.6.6 0 0 1 .449.179.626.626 0 0 1 .176.457v3.817h26.876a.6.6 0 0 1 .439.189.617.617 0 0 1 .186.447v3.818a.616.616 0 0 1-.186.447.6.6 0 0 1-.439.193z" class="cls-1" data-name="Path 116" transform="translate(0 -63.954)"/>
        <path id="Path_117" d="M.625 251.135H27.5v-3.817a.617.617 0 0 1 .186-.447.6.6 0 0 1 .439-.189.6.6 0 0 1 .449.179l6.25 6.361a.627.627 0 0 1 .176.458.6.6 0 0 1-.176.437l-6.231 6.362a.728.728 0 0 1-.469.2.6.6 0 0 1-.439-.188.618.618 0 0 1-.186-.448v-3.817H.625a.6.6 0 0 1-.44-.189.617.617 0 0 1-.185-.449v-3.817a.617.617 0 0 1 .185-.447.6.6 0 0 1 .44-.189z" class="cls-1" data-name="Path 117" transform="translate(0 -234.677)"/>
    </g>
</svg>
