<svg xmlns="http://www.w3.org/2000/svg" width="17" height="17" viewBox="0 0 17 17">
    <defs>
        <style>
            .cls-1{fill:#cb0d0d}
        </style>
    </defs>
    <g id="logout" transform="translate(0 -.008)">
        <path id="Path_366" d="M284.621 209.075h-6.755a.533.533 0 1 1 0-1.067h6.755a.533.533 0 0 1 0 1.067zm0 0" class="cls-1" data-name="Path 366" transform="translate(-268.155 -201.096)"/>
        <path id="Path_367" d="M400.537 134.371a.534.534 0 0 1-.377-.911l2.29-2.29-2.29-2.29a.533.533 0 1 1 .755-.754l2.667 2.667a.533.533 0 0 1 0 .754l-2.667 2.667a.53.53 0 0 1-.378.157zm0 0" class="cls-1" data-name="Path 367" transform="translate(-386.738 -123.723)"/>
        <path id="Path_368" d="M5.688 17.007a1.471 1.471 0 0 1-.441-.066l-4.279-1.42A1.43 1.43 0 0 1 0 14.174V1.425A1.421 1.421 0 0 1 1.422.008a1.472 1.472 0 0 1 .441.066l4.279 1.42a1.43 1.43 0 0 1 .968 1.347v12.75a1.421 1.421 0 0 1-1.422 1.417zM1.422 1.07a.356.356 0 0 0-.356.354v12.75a.368.368 0 0 0 .247.341l4.259 1.414a.388.388 0 0 0 .116.016.356.356 0 0 0 .355-.354V2.841A.368.368 0 0 0 5.8 2.5L1.538 1.086a.387.387 0 0 0-.116-.016zm0 0" class="cls-1" data-name="Path 368"/>
        <path id="Path_369" d="M36.623 5.7a.534.534 0 0 1-.533-.533v-3.2a.89.89 0 0 0-.889-.889h-8a.533.533 0 1 1 0-1.067h8a1.957 1.957 0 0 1 1.955 1.956v3.2a.534.534 0 0 1-.533.533zm0 0" class="cls-1" data-name="Path 369" transform="translate(-25.779)"/>
        <path id="Path_370" d="M184.71 283.029h-2.844a.533.533 0 1 1 0-1.067h2.844a.89.89 0 0 0 .889-.889v-3.2a.533.533 0 1 1 1.067 0v3.2a1.957 1.957 0 0 1-1.956 1.956zm0 0" class="cls-1" data-name="Path 370" transform="translate(-175.322 -268.155)"/>
    </g>
</svg>
